<svg width="21" height="20" viewBox="0 0 21 20" fill="none" xmlns="http://www.w3.org/2000/svg">
<g clip-path="url(#clip0_706_1807)">
<path d="M14.0673 8.93252C14.1255 8.99058 14.1717 9.05954 14.2032 9.13548C14.2347 9.21141 14.2509 9.29281 14.2509 9.37502C14.2509 9.45723 14.2347 9.53863 14.2032 9.61456C14.1717 9.69049 14.1255 9.75946 14.0673 9.81752L10.3173 13.5675C10.2593 13.6257 10.1903 13.6719 10.1144 13.7034C10.0384 13.7349 9.95702 13.7511 9.87481 13.7511C9.7926 13.7511 9.7112 13.7349 9.63527 13.7034C9.55934 13.6719 9.49037 13.6257 9.43231 13.5675L7.55731 11.6925C7.4992 11.6344 7.45311 11.5654 7.42166 11.4895C7.39021 11.4136 7.37402 11.3322 7.37402 11.25C7.37402 11.1678 7.39021 11.0865 7.42166 11.0105C7.45311 10.9346 7.4992 10.8656 7.55731 10.8075C7.67467 10.6902 7.83384 10.6242 7.99981 10.6242C8.08199 10.6242 8.16337 10.6404 8.23929 10.6719C8.31522 10.7033 8.3842 10.7494 8.44231 10.8075L9.87481 12.2413L13.1823 8.93252C13.2404 8.87431 13.3093 8.82814 13.3853 8.79663C13.4612 8.76512 13.5426 8.7489 13.6248 8.7489C13.707 8.7489 13.7884 8.76512 13.8644 8.79663C13.9403 8.82814 14.0093 8.87431 14.0673 8.93252Z" fill="#7C8188"/>
<path d="M4.875 0C5.04076 0 5.19973 0.065848 5.31694 0.183058C5.43415 0.300269 5.5 0.45924 5.5 0.625V1.25H15.5V0.625C15.5 0.45924 15.5658 0.300269 15.6831 0.183058C15.8003 0.065848 15.9592 0 16.125 0C16.2908 0 16.4497 0.065848 16.5669 0.183058C16.6842 0.300269 16.75 0.45924 16.75 0.625V1.25H18C18.663 1.25 19.2989 1.51339 19.7678 1.98223C20.2366 2.45107 20.5 3.08696 20.5 3.75V17.5C20.5 18.163 20.2366 18.7989 19.7678 19.2678C19.2989 19.7366 18.663 20 18 20H3C2.33696 20 1.70107 19.7366 1.23223 19.2678C0.763392 18.7989 0.5 18.163 0.5 17.5V3.75C0.5 3.08696 0.763392 2.45107 1.23223 1.98223C1.70107 1.51339 2.33696 1.25 3 1.25H4.25V0.625C4.25 0.45924 4.31585 0.300269 4.43306 0.183058C4.55027 0.065848 4.70924 0 4.875 0ZM1.75 5V17.5C1.75 17.8315 1.8817 18.1495 2.11612 18.3839C2.35054 18.6183 2.66848 18.75 3 18.75H18C18.3315 18.75 18.6495 18.6183 18.8839 18.3839C19.1183 18.1495 19.25 17.8315 19.25 17.5V5H1.75Z" fill="#7C8188"/>
</g>
<defs>
<clipPath id="clip0_706_1807">
<rect width="20" height="20" fill="white" transform="translate(0.5)"/>
</clipPath>
</defs>
</svg>
