<svg width="16" height="16" viewBox="0 0 16 16" fill="none" xmlns="http://www.w3.org/2000/svg">
<g clip-path="url(#clip0_943_2705)">
<path d="M12.8543 0.146393C12.7605 0.0526577 12.6334 0 12.5008 0C12.3682 0 12.2411 0.0526577 12.1473 0.146393L10.5003 1.79339L14.2073 5.50039L15.8543 3.85439C15.9009 3.80795 15.9378 3.75277 15.963 3.69203C15.9882 3.63128 16.0012 3.56616 16.0012 3.50039C16.0012 3.43463 15.9882 3.3695 15.963 3.30876C15.9378 3.24801 15.9009 3.19284 15.8543 3.14639L12.8543 0.146393ZM13.5003 6.20739L9.79329 2.50039L3.29329 9.00039H3.50029C3.6329 9.00039 3.76008 9.05307 3.85385 9.14684C3.94762 9.24061 4.00029 9.36779 4.00029 9.50039V10.0004H4.50029C4.6329 10.0004 4.76008 10.0531 4.85385 10.1468C4.94762 10.2406 5.00029 10.3678 5.00029 10.5004V11.0004H5.50029C5.6329 11.0004 5.76008 11.0531 5.85385 11.1468C5.94762 11.2406 6.00029 11.3678 6.00029 11.5004V12.0004H6.50029C6.6329 12.0004 6.76008 12.0531 6.85385 12.1468C6.94761 12.2406 7.00029 12.3678 7.00029 12.5004V12.7074L13.5003 6.20739ZM6.03229 13.6754C6.01125 13.6194 6.00041 13.5602 6.00029 13.5004V13.0004H5.50029C5.36769 13.0004 5.24051 12.9477 5.14674 12.8539C5.05297 12.7602 5.00029 12.633 5.00029 12.5004V12.0004H4.50029C4.36769 12.0004 4.24051 11.9477 4.14674 11.8539C4.05297 11.7602 4.00029 11.633 4.00029 11.5004V11.0004H3.50029C3.36769 11.0004 3.24051 10.9477 3.14674 10.8539C3.05297 10.7602 3.00029 10.633 3.00029 10.5004V10.0004H2.50029C2.44052 10.0003 2.38125 9.98944 2.32529 9.96839L2.14629 10.1464C2.09864 10.1944 2.06122 10.2515 2.03629 10.3144L0.0362944 15.3144C-7.63125e-05 15.4053 -0.00897981 15.5048 0.0106876 15.6007C0.0303551 15.6966 0.0777286 15.7845 0.146935 15.8538C0.216142 15.923 0.304138 15.9703 0.400014 15.99C0.49589 16.0097 0.59543 16.0008 0.686294 15.9644L5.68629 13.9644C5.74916 13.9395 5.80631 13.902 5.85429 13.8544L6.03229 13.6754Z" fill="#BFBFBF"/>
</g>
<defs>
<clipPath id="clip0_943_2705">
<rect width="16" height="16" fill="white"/>
</clipPath>
</defs>
</svg>
